<svg width="406" height="298" viewBox="0 0 406 298" fill="none" xmlns="http://www.w3.org/2000/svg">
<rect x="123" width="283" height="265" fill="#D9D9D9"/>
<rect x="90" y="91" width="209" height="207" fill="#951AD1"/>
<path d="M168.254 124.951L163.498 144.155C170.236 130.552 181.136 120.35 193.622 111.348C184.505 121.95 176.182 132.552 171.228 143.354C179.749 131.152 191.244 124.551 204.125 119.949C186.883 135.352 173.209 152.156 162.903 168.759L154.58 165.158C155.968 151.756 160.922 138.153 168.254 124.951Z" fill="#68B044"/>
<path d="M146.256 161.558L161.913 168.159C161.913 172.16 161.516 184.563 164.093 188.163C190.252 222.17 185.892 290.583 158.742 292.184C117.521 292.184 101.666 263.978 101.666 237.973C101.666 214.168 129.807 198.565 146.653 184.562C151.211 180.762 150.418 172.361 146.256 161.558Z" fill="#F5F8DE"/>
<path d="M161.913 167.959L167.66 170.959C167.065 174.76 167.858 183.162 171.624 185.163C188.271 195.564 203.729 206.767 209.872 218.169C231.671 257.977 194.612 294.984 162.309 291.384C179.749 278.381 184.901 251.575 178.362 222.17C175.785 210.768 171.624 200.366 164.291 188.563C161.12 183.162 162.309 175.961 161.913 167.959Z" fill="#7E4798"/>
<path d="M145.067 157.757L171.029 168.559C167.462 180.161 177.767 188.363 181.136 190.163C188.667 194.364 195.801 198.765 201.549 203.966C212.448 213.968 218.592 227.971 218.592 242.574C218.592 257.176 212.052 271.379 200.756 280.781C190.252 289.582 175.587 293.383 161.516 293.383C152.797 293.383 144.869 292.983 136.348 290.183C116.728 283.581 102.261 266.778 101.072 246.574C99.8824 230.971 103.449 218.968 115.538 206.366C121.682 199.765 134.366 192.164 143.086 186.162C147.446 183.361 152.004 174.96 143.284 159.157L145.067 157.757ZM147.049 161.958C148.041 163.358 150.418 169.359 151.013 171.159C152.202 176.16 151.608 180.961 150.616 183.162C145.266 193.163 135.753 195.964 129.015 201.565C127.685 202.666 126.344 203.739 125.01 204.815L124.284 205.402C113.77 213.927 104.026 222.931 105.233 246.774C106.026 260.177 116.331 276.78 131.987 284.381C134.969 285.853 138.083 287.011 141.293 287.924C137.462 286.22 134.198 284.104 131.591 281.182C131.591 280.982 130.6 280.181 130.6 280.181C125.051 273.78 118.115 262.978 115.737 252.776C114.746 248.775 113.953 245.575 115.142 241.374C119.29 226.447 127.869 219.637 136.847 213.407L137.439 212.996L137.736 212.792L138.627 212.179L139.518 211.567C141.699 210.168 144.473 208.767 146.652 206.967C150.251 204.598 152.368 198.239 154.171 191.927L154.351 191.296C154.768 189.824 155.17 188.363 155.571 186.963C154.382 193.164 152.994 204.366 147.643 208.567C145.464 210.168 143.086 211.768 140.708 213.368L139.834 213.961C130.431 220.35 121.353 226.644 117.124 241.974C116.133 245.374 116.926 248.975 117.719 252.376C120.097 262.177 126.835 272.58 132.186 278.781C132.186 278.863 132.354 279.047 132.551 279.249L132.725 279.425C132.957 279.66 133.177 279.887 133.177 279.981C137.009 284.553 138.545 286.343 150.168 289.29C147.321 288.119 144.593 286.728 142.69 285.382C133.177 278.781 128.42 270.58 127.628 258.377C127.033 248.775 132.78 238.973 144.076 232.972C151.805 228.771 154.184 222.57 156.562 214.968C154.778 223.77 152.797 228.971 144.869 233.772C135.357 239.173 128.619 250.175 129.213 257.577C130.006 266.578 136.149 276.981 143.284 283.182C146.161 285.763 150.715 287.565 155.177 288.689C154.01 287.76 152.73 286.43 151.607 284.782C150.22 282.782 149.229 279.981 148.238 277.38C147.247 274.98 146.256 272.18 146.256 269.779C146.256 263.978 146.851 256.776 151.013 251.976C154.778 247.574 155.968 246.974 157.552 241.774C156.364 247.574 155.571 247.975 152.004 253.176C147.446 259.577 147.247 265.978 147.842 269.979C148.238 272.58 149.229 274.98 150.022 276.98C151.013 279.581 152.202 281.981 153.787 284.182C155.175 285.782 155.968 286.783 157.949 287.783C160.129 283.582 161.516 275.18 161.715 270.579C161.913 266.578 162.111 261.978 161.516 257.377C160.723 251.176 158.94 245.174 158.742 240.373C159.733 244.774 161.913 250.975 163.102 256.977C164.093 261.778 164.291 266.379 163.894 269.979C163.498 274.18 163.299 277.581 162.706 281.181C162.16 283.933 160.781 286.518 158.569 289.242C163.584 286.014 166.491 280.286 167.858 273.78C169.641 265.778 169.84 258.177 169.84 254.176C169.84 251.329 168.848 247.106 167.748 242.892L167.553 242.149C167.324 241.282 167.093 240.42 166.867 239.573C165.876 235.572 162.111 231.571 161.12 228.571C159.336 223.57 160.129 219.969 159.931 212.968C160.724 219.369 160.724 224.97 162.507 227.971C163.894 230.571 166.273 234.172 167.66 237.773C170.434 244.374 171.821 251.575 172.02 254.976C172.218 260.777 171.425 269.779 169.444 276.98C168.706 279.398 167.76 281.643 166.699 283.608C168.946 280.111 170.663 276.004 171.425 272.379C171.554 271.77 171.682 271.157 171.807 270.544L171.993 269.623C174.279 258.257 175.864 246.605 174.398 239.573C174.001 237.773 173.407 231.771 171.029 225.371C167.66 215.968 162.705 208.367 162.111 206.567C160.219 201.602 159.771 189.529 159.563 182.352L159.559 182.186C159.619 183.953 159.737 185.884 159.899 187.852L159.952 188.474C159.988 188.89 160.026 189.307 160.065 189.724L160.126 190.348C160.137 190.452 160.147 190.557 160.158 190.66L160.222 191.283C160.856 197.296 161.821 202.981 162.706 204.766C163.3 206.567 168.651 215.168 172.416 224.17C174.992 229.971 175.785 235.572 175.983 237.173C177.965 253.976 176.38 260.977 172.02 275.981C171.493 277.821 170.776 279.577 169.943 281.21C172.45 277.963 174.295 274.481 174.992 271.58C179.154 252.976 180.74 228.971 174.794 210.567C171.624 200.966 164.093 192.564 162.706 186.763C161.516 181.362 161.516 175.761 161.912 168.559L163.894 169.559C162.903 171.76 163.498 182.962 165.083 187.163C167.065 192.764 172.812 199.165 176.38 208.167C177.281 210.268 178.183 213.397 178.983 216.647L179.119 217.205C179.187 217.484 179.253 217.764 179.319 218.044L179.45 218.603C180.701 224.009 181.616 229.243 181.73 230.171C183.713 246.974 182.722 262.777 177.767 276.181C175.425 282.385 170.488 288.045 166.871 290.661C176.5 289.349 189.772 284.381 197.783 277.78C208.088 269.178 213.638 255.976 213.638 242.573C213.638 229.171 208.485 216.368 198.378 207.367C192.631 202.166 183.316 195.764 177.371 192.364C171.425 188.963 164.093 179.561 166.471 170.559L147.049 161.958Z" fill="#010101"/>
<path d="M310.344 84.4612C325.327 93.0047 344.4 87.784 352.943 72.8005C361.487 57.817 356.266 38.7446 341.282 30.2011C326.299 21.6575 307.226 26.8782 298.683 41.8617C290.139 56.8452 295.36 75.9177 310.344 84.4612Z" fill="#F2E4FF"/>
<path d="M312.266 80.2146L312.018 80.65L312.454 80.8972C325.443 88.2609 341.946 83.7274 349.346 70.7489C356.746 57.771 352.242 41.2601 339.29 33.8318L338.856 33.5824L338.607 34.0178L336.656 37.4402L336.409 37.8733L336.841 38.1215C347.425 44.1974 351.105 57.6938 345.056 68.3023C339.006 78.912 325.518 82.619 314.898 76.6046L314.465 76.3589L314.218 76.792L312.266 80.2146ZM319.776 68.0475L319.343 67.8034L319.097 68.2355L317.146 71.6572L316.897 72.0932L317.334 72.3401C325.597 77.0089 336.087 74.1241 340.792 65.8711C345.498 57.6191 342.638 47.1226 334.412 42.3893L333.977 42.139L333.728 42.5751L331.777 45.9968L331.531 46.4288L331.961 46.6775C337.82 50.0589 339.856 57.5411 336.501 63.4243C333.146 69.3084 325.67 71.3672 319.776 68.0475ZM329.536 50.946L329.1 50.6918L328.85 51.1303L322.024 63.1021L321.774 63.5406L322.214 63.7865C325.751 65.7589 330.225 64.5201 332.236 60.9926C334.247 57.466 333.035 52.985 329.536 50.946ZM309.962 85.1297C294.609 76.3752 289.26 56.8332 298.015 41.4795C306.769 26.1269 326.31 20.7781 341.663 29.5326C357.016 38.2866 362.366 57.8282 353.612 73.1808C344.857 88.5343 325.315 93.8837 309.962 85.1297Z" fill="url(#paint0_linear_28_60)" stroke="black"/>
<path d="M304.5 18.5L313 30L307.5 34L300.5 25.5H281.5V18.5H304.5Z" fill="#951AD1"/>
<path d="M369.236 42.9118L354.872 45.5295L355.952 52.3215L367.084 50.8857L380.736 64.1004L385.761 58.9085L369.236 42.9118Z" fill="#951AD1"/>
<path d="M294 40L302.5 51.5L297 55.5L290 47H271V40H294Z" fill="#951AD1"/>
<path d="M362.988 67.1626L352.529 67.1626L351.855 74.0069L360.5 74.0069L372.852 91.674L379.028 87.9229L362.988 67.1626Z" fill="#951AD1"/>
<path d="M283.298 57.6581L297.59 58.1488L297.304 64.9436L286.294 65.1428L274.483 80.0255L269 75.6741L283.298 57.6581Z" fill="#951AD1"/>
<path d="M355.378 90.1393L349.375 77.683L343.536 80.929L347.654 90.7788L339.224 107.806L345.173 110.752L355.378 90.1393Z" fill="#951AD1"/>
<defs>
<linearGradient id="paint0_linear_28_60" x1="-82.677" y1="7269.4" x2="3136.97" y2="1622.82" gradientUnits="userSpaceOnUse">
<stop stop-color="#420C5D"/>
<stop offset="1" stop-color="#951AD1"/>
</linearGradient>
</defs>
</svg>
